<svg width="80" height="80" viewBox="0 0 80 80" xmlns="http://www.w3.org/2000/svg"><title>Collingwood</title><g fill="none" fill-rule="evenodd"><path d="M32.49277 61.55303c.00107 0 .5428.41992.5428.41992l2.00022 1.061 1.7026 1.80256-2.6846.5792c-.0775.0267-.132.0935-.1443.1753 0 .0102-.0048.0802-.0048.0802.0005.1822.0683.3441.2991.6946.0032.0054.1271.1993.1271.1993.0529.0823.1479.1223.2377.1015 0 0-.0091.0155-.0102.0166.0363-.0139.0673-.0294.1132-.04.5556-.1271 1.3971-.32 1.8747-.4824 1.8864-.6031 3.2749-.4744 5.6769.0422.0187.0043.5695.1459.5695.1459.2586.0791.5311.1635.873.1795.0604.0022.1207-.0213.164-.0641.4765-.4749.6603-.6918.7111-.9194.0027-.0267.0032-.0352.0053-.0529-.0022-.0935-.0604-.0913-.1496-.1207-.0011-.0005-.1501-.0374-.1501-.0374l-.1441-.0339c-1.0691.0663-2.433-.4787-2.433-.4787.6032-.4124 1.8084-1.935 1.8084-1.935.8254-.4455.5892-.3873 1.3575-.913l1.358-1.0615 1.1454 3.151c.1315.3761.366.788.366.788 0-.001.0326.0519.0326.0519l.2271.3649c0 .0006.2703.3932.2703.3932 1.2956 1.7753 3.9358 3.5229 5.7939 3.5335.0139-.0037.0241-.0058.03-.0074.0358-.0743 6.3741-11.9762 6.6604-12.5179-.0155-.0042-.1651-.0486-.1651-.0486-.2853-.0887-2.5628-.9835-3.3844-2.2107l-.1571-.2356.3553-.4562c.3991-.7543.6336-1.3147 1.0183-2.1781l.0096-.0342s0-.2179-.0005-.2799c-.0032-.0096-.0775-.2121-.0775-.2121l.1293-.0726c.5785-.8388.905-1.8768 1.2159-2.8625.0005 0 .1459-.46.1459-.46l.0075-.0352-.008.0774s.0203-.1805.0272-.2372c-.0016-.0561-.0155-.0497-.1181-.1052l-1.6081 1.3169 1.444-1.8757c.3216-.7319.4536-1.5338.57-2.2422-.0016.0144-.0673-.1896-.0673-.1896-.0016.0315.0459-.3414.0459-.3414-.001.0294-.0203-.0342-.0203-.0342l-.0737-.2356.0614-.1127.2575-.3558c.1208-.2463.249-.5086.3291-.7864.3152-1.0391.2896-1.9505.2896-2.5548 0 0 .0481-.5193.0476-.5209 0 .0075-.015-.0444-.015-.0444.0026.0043-.0663-.0587-.0663-.0587l-.2308-.0005.1021-.3617c.0892-.4338.133-.8548.133-1.2865 0-.001-.039-1.0102-.0396-1.0273-.0011.0129-.0299-.1415-.0299-.1415-.0358-.1801-.0732-.3366-.178-.4445l-.1886.0133s.1159-.5556.1218-.6085c-.0022-.5957-.1571-1.1556-.3077-1.6973-.0037-.0128-.1443-.843-.1443-.843.0037.0155-.0208-.0587-.0208-.0587-.0492-.133-.1314-.1907-.2415-.1678-.0187.0134-.5396.5615-.5396.5615l-.1229-.8484c-.1934-.749-.4685-1.2709-1.1486-1.8821l-.0369-.0326-.0657-.1009s.0347-.023.0395-.0256c-.0054.0027-.0427.0208-.0427.0208-.0993-.2003-.1998-.2083-.2927-.1875l.0844-.0304-.1512.0454-.0166.0663c-.1415.5588-.1667 1.0899-.172 1.6706.0198.2148-.0123.6694-.0123.6694-.18-.1373-.4017-.0742-.4017-.0742l-.1582 1.4927c-.0101-.3916-.2489-2.1258-.2489-2.1258-.7228-5.3451-2.6092-10.1245-5.4562-13.822-3.3289-4.3231-7.6611-6.7042-12.1979-6.7042-8.3903 0-15.7715 8.3631-17.5521 19.8846 0 0-.2468 1.9046-.2885 2.3459 0 0-1.0765-1.0679-.5321-2.387l-.085-.8793c-.0016-.0123-.0187-.0465-.0187-.0465l-.0091-.0165-.0069-.0187c-.0492-.1282-.1192-.1907-.2137-.1907h-.0535c-.0038.016-.0978.1341-.0978.1341l-.0139.0176-.016.016c-.5972.5866-1.1545 1.139-1.3826 2.0408l-.0224.6278-.1378.4541-.4936-.6956c0 .0053-.0785.0988-.0785.0988l-.0102.0122-.0726.0705c0 .0006-.1667.7303-.1667.7303-.1117.39-.2233.7848-.2901 1.2026v.0006c0 .0187-.0198.3227-.0235.3852.0032.04486.1432.9504.1432.9504l-.289-.00533-.0363.0245c-.0011.0005-.0096.0433-.0096.0433-.0962.4461-.1454.8414-.1454 1.3431 0 .4193.0523.8905.1549 1.3992l.1191.4738-.2457-.1154c-.0332.0278-.0738.0684-.0812.1063 0-.0075-.0091.4488-.0091.4488 0 1.3548.3627 2.6242.9125 3.7648l.0657.1368s-.0454.1309-.0492.1405c.0038.0182.0123.0615.0123.0615l.0027.0251c.0379.5845.0694 1.1759.1886 1.7283.047.3697.1602.7218.3408 1.0808l.9563 1.3554-1.0899-.7918c-.0326.0208-.0876.0635-.0919.1207.266 1.4082.7351 2.4842 1.4334 3.4624l.1341.2532s-.0091.1036-.0113.109c.0043.0134.0096.031.0096.031.2121.7036.4434 1.3661.749 1.9842.00052 0 .3435.5893.3435.5893.0011.0011.0732.2682.0732.2682l.296.2831-.23507.2511c-.2447.2954-.4985.5358-.7715.749-1.8319 1.4243-2.8139 1.3105-2.9202 1.29237-.0695-.0091-.156-.0086-.2292-.0027.02244.0513.1624.26553.1336.218 0 0 6.1299 10.44185 6.6396 11.1161.05872.09934.5946.75165.6144.7527l.0374-.01065c4.4908-1.2699 5.1672-2.0937 6.755-4.7281l.1485-.2714.22222-.6176c.51823-1.6097.8393-1.6044.8393-1.6044" fill="#FFF"/><path d="M42.45562 64.34453c.49738-.11594.97607-.1218 1.43873-.12716.75916-.00854 1.6177-.01763 2.52164-.65338.0363-.0257.0528-.0668.0406-.1096l-.1699-.5808c-.0096-.0347-.0364-.0588-.0711-.0684-.0348-.0091-.07.0032-.0973.0277-.4429.4162-.8329.6673-1.3047.8409-.3959.1314-1.7246.3334-1.8966-.1629 0-.0011-.0187-.1181-.0187-.1181 0-.1774.1132-.3745.2698-.468.967-.4461 1.9965-1.1588 2.7455-1.9019.0246-.0246.0358-.0598.0278-.0946l-.0529-.2517c-.008-.0401-.0401-.0722-.0807-.0802-.0401-.008-.0818.008-.1058.0422-.4846.6908-1.4222 1.2736-2.1071 1.6989-.0022.0016-.7122.4739-.7122.4739-.0075.0058-.3489.313-.3489.313-.5386.5203-1.4345 1.3863-2.8855 1.6187-1.6551.1501-2.6435-.6737-3.5987-1.4697-.0032-.0032-.7918-.6352-.7918-.6352-.0251-.0177-.7036-.3329-.7036-.3329-.6422-.2794-1.2539-.5759-1.7048-1.1401-.024-.03-.0604-.0508-.0983-.0438-.0379.0074-.0657.0283-.0769.0651l-.0631.2079c-.0118.039-.0011.0892.0293.1154.6854.601 1.5017.9985 2.2812 1.3388l.039.0251.1448.0898c.1533.0855.3793.2121.3793.4546l-.0016.0395c0-.0011-.0139.0443-.0139.0443-.1149.2094-.32.2645-.484.3088-.0032.0011-.125.0369-.125.0369-1.0108.1336-1.8913-.1496-2.5762-.8121-.0246-.0246-.0593-.0363-.093-.0288-.0342.0075-.0615.0299-.0743.062l-.2116.546c-.0166.0422-.0016.0854.0336.1143.468.3756.944.5684 1.5888.6459.3718.0379.7602.0326 1.1032.0267.8131-.0123 1.654-.0246 2.4329.4621.0342.0214.0556.0598.0556.1004l-.008.0411c-.0326.0801-.2297.1539-.2912.1619-.0128.0011-1.0915.2153-1.0915.2153-.5102.0908-.9451.1742-1.4825.3462-.0305.0091-.0566.0288-.0679.0582-.0113.0294-.0102.0588.0064.086l.2719.4504c-.0005-.001.0507.0791.0507.0791.0235.0369.0678.055.1106.0449.4653-.1063 1.3313-.3035 1.7977-.4627 1.959-.6278 3.3849-.4974 5.8409.031l.6138.156c.1918.0593.4242.1255.6903.1496.0326.0032.0614-.0059.0828-.0294l.4899-.5321c.0246-.0262.031-.0609.0203-.0962-.0096-.0348-.0401-.0588-.0748-.0679-.5027-.1368-.9878-.2047-1.3965-.2522-.4723-.0556-.9601-.1122-1.4815-.2538-.0422-.0112-.0743-.0449-.0828-.0876-.0027-.0583.0128-.0909.0406-.1128.2965-.2393.842-.4685 1.2961-.5454" fill="#FFF"/><path d="M50.63916 36.60958c0 2.36244-.26926 4.62177-.75596 6.70747.17417.10845.30987.19447.3227.203.73297.491 2.54514 1.7796 3.54472 3.13658.11486.15707.2292.32482.34245.4979 1.08345-3.18517 1.6957-6.75874 1.6957-10.53854 0-13.3284-7.55746-24.1325-16.8806-24.1325-9.3226 0-16.88007 10.804-16.88007 24.1324 0 3.9892.67903 7.7519 1.87735 11.0669.99316-1.5905 2.39075-3.2172 4.20078-3.915-.55508-2.2097-.8644-4.6245-.8644-7.1584 0-10.4836 5.23668-18.9807 11.6984-18.9807 6.4601 0 11.69893 8.4972 11.69893 18.9807m-9.3274 18.9566c.11325.1533.1672.4407.05875.6299-.211.0101-.2804-.5172-.5315-.2148l.0786 1.6551c.0545.1282.3152.1384.2378.3136-.2863.1335-.6314-.0048-.9274.0406-.1426-.2116.2212-.2597.1977-.4728l-.0796-1.5365c-.0433-.0892-.1576-.0839-.2361-.0385-.1672.1036-.0438.5064-.3547.3723-.039.0502-.0833.0748-.1378.079-.1816-.1833-.2163-.5712-.5524-.5514-.0924.0796-.1223.2083-.078.3136.296.3772.9852.561.827 1.1823-.118.2586-.1223.6662-.4931.7105-.2703.0747-.4862-.109-.6892-.2549-.2703.4979-.9301.1106-1.3591.2548-.1426-.1042.0155-.2271.039-.3334l-.0587-1.7934c-.0838-.0759-.1773-.1731-.1373-.2784.3884-.0738.827-.023 1.2411-.039.0983.1485.2271.3718.1176.5722-.0336.0438-.0785.0689-.1373.0582-.0684-.1266-.094-.3227-.2762-.3532-.1378-.0251-.281.0198-.3152.1597.069.164-.0689.4124.1187.5321.2212.0246.2212-.2933.4135-.2986.148.2676.0593.6309 0 .9093-.1726-.0299-.1875-.4119-.4333-.2784-.1378.1683-.0694.4429-.0598.6507.0257.0593.0556.1586.1384.1586.132.024.2319-.0347.335-.0796.1731-.1736.2666-.3318.4135-.5124.1875.0262.1875.3098.3157.453.0983.0791.187.2501.3339.1592.1149-.0999.1737-.2473.1197-.3974-.1677-.3927-.7089-.3526-.828-.7848-.0491-.3532-.039-.7464.2949-.9489.2426-.0967.499.0091.7298.0599l.0983.1581c-.0144-.2858.2955-.2527.4926-.2767l1.084.0197zm.21732 2.8958c.4728.6117-.2917 1.1-.37398 1.6765.07373.0625.20622.0438.29437.0176.09884-.0716.16242-.2234.2949-.2132.10953.2041-.0187.4573-.11753.6502-.28582.1506-.65498.0433-.96538.0192-.01977-.5471.51662-.9179.5711-1.4596.0155-.1635-.01495-.304-.11752-.413-.2121-.055-.3152.2837-.51342.1581.01496-.2175.1731-.4253.37505-.5135.15813-.0919.42953-.0919.5524.0775m-2.582.0401c.13783.1287.14317.3072.1779.4728l-.15814.3756c.1528.2885.3259.6266.19767.9846-.09937.2233-.32963.3638-.5524.4124-.23134.0203-.40924-.0919-.57166-.2335-.16187-.1689-.18164-.4242-.13783-.6513l.1576-.3163c-.1479-.289-.1431-.7373.0593-1.0055.1085-.1079.2367-.1656.374-.1945.1683.0134.3355.0289.4536.1555" fill="#000"/><path d="M40.24742 58.46204c.3793.33658.3494.92478.25644 1.38103-.17844.40335-.52677.88952-1.0247.90448-.11325-.04328-.02937-.13944 0-.19447.23668-.10418.4632-.34672.4723-.6101-.27034.03418-.50648-.10525-.63043-.3382-.13783-.3232-.0983-.7645.11914-1.04337.18218-.2398.58554-.2981.80725-.0993m-2.58068.1795c-.01015.5658.00962 1.1668.0593 1.7337.07373.0887.226.1731.15653.2949-.22598.1379-.49684-.0197-.74794.0577-.1779-.1298.07373-.234.0983-.3526.0048-.4819.0048-.9696-.078-1.4189-.05984-.0678-.18805-.0678-.13837-.1768.1234-.1843.35367-.1929.49258-.3766.14264-.0272.1325.1485.1576.2388" fill="#000"/><path d="M38.73133 58.81892c.02832.11326.03313.25964-.04007.35367-.07906.0593-.17256-.0342-.2559-.0593-.109-.0994-.11433-.2597-.07907-.3933.1031-.1587.3349-.0593.375.0988m1.2993 0c.0443.1896.0844.4076.0395.6112-.0396.0876-.1427.1554-.2367.0977-.1523-.226-.2116-.5615-.0983-.8281.1036-.1534.2569.0155.2954.1191M38.8092 60.08c.04005.11647.01975.25965-.0593.3542-.08817.1186-.2367.0294-.33446 0-.21748-.16827-.0791-.40762-.1181-.65017.2062-.1042.42846.10896.5118.29595M25.5449 42.0746c.13945-.00053.4541-.04754.66088.3633.0422.08227.07374.1715.0855.2559.0171.0876.016.17043-.0016.2559-.0422.1683-.1496.33177-.35368.47548-.17308.1202-.40495.1854-.6256.21958-.2217.02994-.4322.02673-.54973.0059-.281-.04915-.5305-.23026-.6069-.5102-.16618-.59997.23985-.8254.4092-.87617l-.117-.5968c-.15492.0347-.54706.1314-.76022.6277-.15708.336-.12236.647-.0796.8639.1544.788.67687 1.0647 1.2838 1.1256.18162.0165.39692-.0032.6026-.0422.20355-.0396.3916-.101.52837-.163.61705-.288.9627-.8436.80885-1.5151-.086-.374-.29703-.6887-.47547-.8399-.22545-.1945-.6144-.3013-.92692-.2463l.11755.5962zm-.91403-3.8086c-.4696.0486-.92105.26714-1.19405.58608-.24148.28636-.32055.67422-.2794 1.06743.0422.3943.20087.7571.49737.9863.3339.257.8211.3772 1.2907.3281.4696-.0491.9216-.2665 1.194-.586.2409-.2858.3205-.6742.2794-1.0674-.0422-.3937-.2014-.757-.4979-.9862-.3334-.2569-.8206-.3766-1.2902-.328" fill="#FFF"/><path d="M25.85983 39.63817c.02137.20355-.01656.41244-.14906.5882-.16615.22332-.49364.3601-.82968.39856-.3377.03098-.6855-.03473-.8949-.2185-.1667-.1448-.2479-.34246-.2688-.54494-.0219-.2031.0155-.412.1485-.5883.1661-.2233.4926-.359.8291-.3986.3382-.0305.6859.0352.8954.2185.1667.1453.2473.343.2692.5449" fill="#000"/><path fill="#FFF" d="M23.08896 37.79283l3.12854-.0545-.0374-2.12096-.5369.00962.02617 1.4836-2.59163.0448m.0143-2.1726l3.1168.2703.187-2.113-.53372-.047-.13142 1.4782-2.58255-.2239m.28198-2.5875l-.10044.6299 3.09.4851.1004-.631M23.454 31.168l3.0596.6443.1341-.62347-2.13278-.44876 2.3961-.7784.132-.6155-3.0602-.64373-.13356.62293 2.1028.4429-2.3667.78427m2.869-3.34915l.1961-.678c.08177.0278.22227.0673.36866.2858.1715.2388.1603.554.08018.757-.13673.3323-.4562.4808-.73883.5284-.3895.0668-1.1508-.1715-1.35913-.6379-.0657-.2046-.07697-.367-.01766-.5711.09136-.3184.3152-.5818.7052-.5861l.1624-.5604c-.06943-.0064-.33495-.0951-.7752.1469-.3889.2169-.5305.6016-.61275.8831-.07426.2569-.07533.46-.05663.5983.1512 1.1257 1.6631 1.6578 2.5436 1.1604.17204-.1015.44984-.2265.63416-.7581.2041-.5786-.03366-.9152-.1731-1.1102l.3959.0326.10683-.3676-1.6252-.4616-.3462 1.1935.5118.1447zm3.9855-8.1438c-.36703-.2944-.84198-.4568-1.26243-.4215-.3745.0331-.7089.2522-.9595.5594-.2516.3072-.39853.6758-.3526 1.046.0524.4151.3115.8409.6785 1.1353.36704.2943.842.4568 1.2619.4215.37505-.0326.70895-.2517.96005-.5594.25215-.3072.39853-.6769.35312-1.046-.0534-.4141-.312-.8409-.679-1.1353m2.64932-2.3736c-.30346-.358-.73833-.6069-1.15772-.6529-.37393-.038-.7447.1143-1.04922.3681-.30613.2537-.52143.5882-.5487.9605-.02723.4167.14427.8836.4477 1.2427.30347.3579.73835.6069 1.15827.6523.3745.0385.7442-.1138 1.05034-.3675.3055-.2538.5209-.5893.5481-.9601.0272-.4173-.1453-.8853-.4488-1.2432m1.4882.9073l1.3254-.4782c.3077-.1106.5647-.4296.6523-.8137.0598-.2575.0614-.6651-.125-1.1721-.1101-.2997-.2623-.5022-.367-.6005-.4552-.4424-.8869-.4498-1.1887-.3409l-1.3677.4936 1.0706 2.9116zm-9.4315 7.2415l3.214.4685.2356-.5247-1.9703-1.4275 2.3913.492.2356-.5247-2.5025-2.0531-.2772.6176 1.9724 1.3917-2.3587-.5326-.2773.617 1.9548 1.3687-2.3406-.5108m18.6293-7.8455c.1848-.4306.2115-.9275.0614-1.318-.1347-.3478-.4392-.6053-.8067-.7597-.3676-.1549-.7656-.1929-1.1134-.0481-.3874.1656-.7304.5294-.9136.9589-.1854.4312-.2115.9275-.0619 1.3191.1346.3477.4402.6047.8072.7597.3676.1543.7661.1923 1.1134.047.3873-.1646.7298-.5289.9136-.959m2.8934 2.2568c.3104-.3526.4899-.8174.4696-1.2347-.0198-.3724-.2303-.7105-.5311-.9697-.3014-.2591-.6684-.4178-1.0434-.3863-.4199.0385-.8596.28-1.1695.6326-.3093.3531-.4894.8179-.4696 1.2351.0208.3718.2302.71.531.9696.3013.2596.6683.4183 1.0434.3857.4193-.0385.8596-.2794 1.1694-.6326"/><path d="M30.32864 20.89102c-.12982.15814-.30558.2794-.52516.31147-.27567.0406-.60477-.0909-.87082-.2992-.26018-.2143-.45892-.5054-.47602-.7816-.01442-.2196.06892-.4151.19767-.5738.1299-.1587.3067-.28.5257-.312.2768-.0406.6043.0913.8709.2997.2613.2142.4595.5054.4766.7811.0145.2195-.0684.4156-.1987.5743" fill="#000"/><path d="M47.54924 21.85128l.68544 1.22235c.09456.1715.29116.45785.55668.5551.34513.12607.59302.04326.7346-.03527.32748-.1795.47547-.47495.50966-.70307.27835.1063.54066.0384.70788-.0529.11326-.0625.68864-.4461.17042-1.372l-.62667-1.1182-2.738 1.5039zM52.496 24.8919l-.25538-.69026-3.3134.04648.22705.61064.6646-.00854.3948 1.07864-.51393.41137.22438.6117" fill="#FFF"/><path d="M50.12842 21.16258l.36917.6614c.1095.1934.1196.3868-.1144.51715-.2196.11967-.3916.03366-.5231-.20462l-.3553-.6314.6234-.3424zm-17.50075-2.69966c-.1576.1309-.35367.2169-.57592.20676-.27888-.0123-.57538-.2041-.79656-.45892-.2148-.25965-.3537-.58233-.3174-.85693.0288-.21798.1474-.39428.3056-.52624.1581-.1309.3542-.2164.5759-.2063.2789.0123.5759.2041.7965.4584.2153.2601.3542.5828.3173.8574-.0283.2174-.148.3943-.3056.5257m1.6682-3.5003l.5449-.1961c.2163-.0791.3905-.0914.625.0769.1597.1101.2933.3376.3835.5813.0924.2382.1394.4925.1229.6571-.0278.3355-.2121.5187-.4894.6192l-.4846.1752-.7026-1.9137z" fill="#000"/><path fill="#FFF" d="M38.5445 13.45906l-.10845 3.09703.6427.0229.04648-1.3303 1.36874.047.0187-.5305-1.3682-.0481.02457-.7047 1.5536.0534.01762-.53"/><path d="M45.1024 18.4546c-.15494-.13304-.2714-.312-.296-.53052-.03257-.27514.1122-.59515.33232-.8516.22545-.25108.52516-.43754.8051-.44448.22118-.0064.41618.0828.57165.21637.156.1341.27193.31253.2965.5305.03153.27568-.11325.59623-.33283.85266-.22492.25003-.52516.43702-.80457.44396-.22225.0064-.41672-.0829-.57218-.2169" fill="#000"/><path fill="#FFF" d="M48.4028 17.70018l-.42793.31948.5711.75008-2.07127 1.5461.38787.5086 2.06967-1.54503.55027.7229.4296-.3195"/><path d="M49.03722 21.76286l.42313.75863c.05876.1036.16348.3237-.1448.4931-.37556.2062-.523-.0428-.61757-.2095l-.36757-.6545.7069-.3879z" fill="#000"/><path fill="#FFF" d="M53.0151 26.2922l-2.99177.9077.6256 2.02852.51342-.15546-.43862-1.41896 2.4805-.75222m.64773 2.27685l-3.0826.54012.37397 2.08944.52837-.0935-.26125-1.4607 2.5537-.4477m-2.56823 11.5415l-.29277 1.3693c-.04113.1907-.08494.5337.05236.7794.1785.32.4178.4188.5781.452.3644.0774.6748-.0492.8484-.1993.1384.2607.3868.3814.5685.4199.1272.0267.8153.1111 1.0402-.9253l.2661-1.2507-3.0607-.6454z"/><path d="M53.79768 42.50612l-.15707.73993c-.0459.21637-.1672.36916-.4338.31467-.242-.0529-.3136-.22812-.2553-.49418l.1507-.70734.6956.14692z" fill="#000"/><path d="M52.75948 34.68704c-.14104-.01122-.45625.00962-.62667-.41778-.0368-.08602-.0587-.1779-.063-.26232-.0107-.08975-.001-.1715.0241-.25537.0567-.164.1795-.31734.3959-.4429.1806-.1047.4189-.1501.6406-.16507.2244-.01015.4349.01122.5482.04167.2768.07373.5102.27567.5615.56096.1101.61225-.3131.80244-.4867.8377l.0636.6037c.1587-.01977.5567-.08334.8137-.55882.187-.3226.1795-.6341.156-.8542-.0833-.7981-.5796-1.1187-1.178-1.232-.1822-.0326-.3991-.0315-.6053-.0101-.2067.0219-.4017.0679-.5401.1165-.64.234-1.0353.7576-.9424 1.4404.054.3793.2372.71.4034.8773.2062.2137.5845.3537.8997.3254l-.0641-.6047zm2.08244 1.16786l-3.12695-.0545-.03686 2.1215.5359.00855.0267-1.48254 2.5911.0439m-.1578 3.7699l-2.1621-.1496c-.1976-.0138-.4963-.1239-.4605-.6293.0369-.5166.3462-.555.5423-.5497l2.1643.1496.0438-.6352-2.1546-.1496c-.3066-.0213-.6844.0796-1.007.5733-.078.1656-.1303.3751-.1464.5904-.016.2169.0113.444.0839.6411.218.5305.623.6277.8997.6454l2.1525.1502.0444-.6363z" fill="#FFF"/><path d="M52.5748 42.2494l-.17952.84786c-.0251.11647-.09295.34993-.437.27727-.42153-.0876-.36864-.37183-.32857-.5599l.1587-.7319.7864.16668zM42.2464 16.77123c-.19018-.0796-.35687-.21423-.44822-.41458-.1154-.25216-.07747-.60102.05075-.91195.13623-.3072.36382-.577.6272-.66888.20836-.07426.421-.04862.61118.03098.1902.0796.3564.2137.4477.41405.1154.25163.0775.60102-.0507.91196-.1357.3072-.3638.5765-.6266.6689-.2089.0738-.4215.0486-.6112-.0304m9.4172 8.0317l-1.0001.7998-.2719-.7463" fill="#000"/><path d="M46.87806 52.31975c2.08357 3.159 2.80266 6.8827 5.00483 9.99202 1.0198 1.21007 2.177 2.05418 3.5639 2.51684.1586.0492.3275.0684.5118.0599.9296-1.42 1.6449-2.9998 2.4944-4.4519.0192-.1533-.1544-.1688-.2372-.2377-1.7305-.6753-3.1889-1.6081-4.4407-3.1889-.7651-1.1427-1.0386-2.4938-1.5958-3.7258-1.0685-2.137-2.1183-4.4919-4.336-5.9499-.3558-.1709-.9323-.4033-1.4468-.4498L44.276 49.988c.7095.4931 2.19362 1.5835 2.6018 2.332" fill="#FFF"/><path d="M55.5786 47.23164c.3884.76397.58072 1.64067.63147 2.5617l.07854.09778c-.0892.14318-.2318.22812-.3766.2778-.079-.19393-.0107-.44395-.0593-.65178-.1506-.68917-.3392-1.36927-.3729-2.1076l.0989-.1779zm.19767-3.31073l.0764-.3948c-.05824 1.4104.69932 2.4747.72977 3.8434.05022.4883.01603.9366-.0593 1.3992l-.08013.1186c-.2131-.4194-.2628-.9413-.4316-1.3997-.4327-1.0631-.422-2.3886-.235-3.5666zm.4338-.0785c.49685 1.045 1.04766 2.098 1.04392 3.369.0133.4146-.1443.7549-.3735 1.0653.0945-1.2811-.2773-2.4142-.592-3.5474-.0246-.2954-.1128-.5663-.0786-.8868zm.23294-.5716c.4226.4338.6566 1.0055.631 1.6167h-.0384c-.2692-.469-.5075-.9515-.6309-1.4788l.0385-.1378zm.1998-3.1526c.0289.7197.382 1.3009.5311 1.9703.0444.8084.2431 1.606.1384 2.4244-.1132-.9509-.9509-1.607-.9077-2.621 0-.6202.1331-1.1919.2383-1.7737zm.2752-3.5864c.5188 1.3891.9809 2.8032 1.201 4.3162-.4279-.1683-.6822-.6464-.8462-1.0455-.3921-.975-.5417-2.177-.3547-3.2706zm.3152-3.113c.4974 1.1081.9889 2.2465 1.3987 3.4085v.2367c-.4445-.1031-.7714-.5909-1.084-.9451-.5177-.7298-.3296-1.7983-.3146-2.7001zm1.3987 1.9703c.0305.3008.1079.5813.078.9066-.4877-.9846-.8494-2.0493-1.2784-3.074.5321.6507.9692 1.3746 1.2005 2.1675zm-.9461-4.1575l.0396-.2762c.5268.8869.7309 1.9463 1.044 2.9368-.1261.039-.2399-.0796-.3328-.1773-.6961-.6459-.8403-1.5375-.7506-2.4831zm1.2817 2.0884c-.4071-.7933-.616-1.6652-.9632-2.4826.6769.6454 1.1422 1.4975.9633 2.4827zm-.6309.7293c.2185.1186.4381.2367.631.4141-.0347.2415-.0043.5118-.0988.7287-.2254-.3451-.343-.7629-.5321-1.1427zm1.2026 3.4881v.1176c-.2473.3655-.4867.7298-.7506 1.0846-.0636-.0892-.0636-.2367-.0983-.3547-.0807-.429-.2895-.8029-.4317-1.202.2217.0743.4226.2613.6694.2169l.1192-.1779c.1101.1528.2591.3799.4921.3158zm-.4525-1.7347c.0839-.9253.1603-1.857.6887-2.6007.054.0641.054.1822.0775.2757.055 1.2475-.5374 2.2225-.6293 3.4096-.1912-.3002-.1213-.7095-.1367-1.0845zm.944-1.7726c.1293.2164.1651.507.179.7881.1373.9306-.0785 1.8325-.6507 2.5029h-.0593c-.0545-1.1929.4766-2.1434.5311-3.2909zm-1.2213 5.7928c-.0048-.7826.5268-1.4237.9467-2.0691v.0989c-.3162.655-.6491 1.3052-.9467 1.9703zm1.8132-3.1333c.1395 1.5819-.1447 3.0842-1.3409 4.1586-.1244.1576-.2986.2709-.4931.3152-.1838-.3013.0444-.6208.1395-.9071.6256-1.1625 1.0589-2.4233 1.6946-3.5666zm-.4129 6.1876c-.3857 1.0589-1.3661 2.3394-2.6034 2.3646 1.1-1.2159 2.3208-2.4094 2.7022-3.9411.1555-.1966.1598-.4525.3142-.6502.0588.7987-.2409 1.4975-.4129 2.2267zm-1.0632 2.2662c-.367.7245-1.1235 1.3688-1.56 2.1082 0-.3104-.1742-.6405 0-.9264.4846-.4434 1.0071-.8713 1.56-1.1817zm-1.7951.5316c.2255-.1026.444-.2356.7095-.2356v.0379c-.2062.1731-.4145.3457-.6485.4536-.07-.0443-.0609-.1629-.0609-.2559zm.9259-2.2257c-.1287.4082-.3579.7725-.6309 1.123.1096-1.3452-.2185-2.6413-.6106-3.8423-.0305-.2473-.1021-.4787-.0791-.7495.523 1.1235 2.1006 2.0547 1.3206 3.4689zm2.0312-3.1333c.015.3099-.1485.6251-.258.9253-.4317 1.03-.9579 2.0398-1.8132 2.8775.2137-.6117.5321-1.1823.5124-1.8923.4306-.6945.9488-1.3292 1.5589-1.9105zm-2.6226-2.3651c-.1138-.5219-.313-1.0102-.4722-1.5167.6854.6299 1.2923 1.3938 1.2816 2.3635.0849.671-.0641 1.2859-.0999 1.9324-.2618-.9173-.3345-1.9115-.7095-2.7792zm1.0044 3.4486l.2378.039c-.0743.163-.1534.3248-.3147.4536-.1475-.1517-.2661-.3547-.3548-.5524.1421.0796.3259-.1661.4317.0598zm.0198 6.1278c-.6582.5423-1.1817 1.2812-1.9088 1.6562.8703-1.4387 1.8506-2.8336 2.8972-4.1981-.1042.8965-.3382 1.8277-.9883 2.542zm-4.0677.5476c.14-.351.2912-.6913.444-.9803.0503.616.0102 1.263.0193 1.8939.2425.5118.4808 1.0621.7105 1.6557 1.1112-.8676 2.3891-1.3912 3.3689-2.4864-.0486.6507-.6154 1.1283-1.0658 1.6359-.5695.6994-1.24 1.3095-1.9676 1.755.0342.0935.0732.1998.1235.3286.9408-.6651 1.8084-1.4953 2.574-2.4388-.3152 1.1652-1.2785 2.2706-2.3651 2.9421.0582.1341.1218.2752.1944.4274.2314-.1266.4611-.2468.7138-.3932-.1886.2527-.3804.4504-.5935.6379.0385.0775.0753.1528.117.234.1726-.1042.3473-.2046.4969-.32-.0764.21-.1779.4547-.2938.6946.0486.0866.1005.1763.1528.2655.4274-.8062.827-1.6214 1.1877-2.4313l.0091-.0214v-.3334h-.108c.7042-.905 1.0466-1.9778 1.3768-3.0244l.1459-.4611.0074-.0352c.008-.0363.0203-.0935.0203-.1523 0-.0871-.0267-.18-.133-.2212l-.0636-.0245-1.3709 1.2074s-.0593.0449-.1283.0983l.5342-.4664c1.0289-.9563 1.2421-2.2555 1.4488-3.5121.0043-.031.0155-.1832.0155-.1832.007-.07.0144-.1432.0144-.2164 0-.1058-.024-.2094-.0758-.3061.0289-.0646.2495-.562.2495-.562.1223-.2505.249-.5091.3291-.7869.2303-.7581.3489-1.6343.3489-2.5585 0-.1694-.0038-.3398-.0118-.5118l-.0011-.0251-.0117-.0224c-.0742-.1378-.1923-.1212-.2591-.1047.14-.4984.195-1.0519.195-1.6086 0-.3467-.0165-.6923-.039-1.0198-.0032-.0192-.0299-.1464-.0299-.1464-.0336-.1704-.0689-.3462-.1822-.4573l-.0673-.0667-.0406.039s-.0187.0139-.0278.0209c.0342-.1912.0737-.3841.0737-.5679 0-.5978-.156-1.1604-.3093-1.7101l-.2281-.9269c-.008-.0251-.0176-.0497-.0176-.0497-.054-.1469-.1411-.2062-.2575-.1758l-.039.0102-.2506.3457s-.0812.1053-.1614.2094c-.047-1.0728-.5331-2.0387-1.4761-2.8668-.0064-.0054-.062-.0935-.062-.0935-.0395-.0796-.1138-.2276-.2933-.1875l-.0673.0149-.0165.0663c-.1613.6373-.18 1.3393-.18 2.0312 0 .1015.0011.3537.0011.3889-.0945-.0609-.1971-.1116-.3157-.0994l-.0908.0086-.0091.0919c-.0881.9611-.0881 1.9895 0 2.9758.0011-.0181.0123.0396.023.0957l-.0908-.1442-.0919.1608c-.2655.4637-.3307 1.0722-.3307 1.6519 0 .3034.0182.5994.0337.8617.0123.2046.0241.3932.0241.5444 0 .0999-.0048.1838-.0176.2452-.1955.7955-.2928 1.6466-.3863 2.4688 0 0-.0673.5759-.0673.5764 0 .0128.0027.0855.0064.1646-.0288-.0177-.0587-.0369-.0961-.039l-.1539.062c-.2142.3355-.273.7014-.3296 1.0567l-.0951.4941c-.1202.6016-.1357 1.2475-.1512 1.872 0 0-.008.335-.0096.3873-.3975.5145-.593 1.1139-.7645 1.7048.0791.1347.1576.2714.2356.4141z" fill="#A39161"/><path d="M20.5828 55.1183c-.11806.1138-.2404.2249-.3729.32856-.46693.36275-.8767.62453-1.2325.8142.8222.13836 1.68127.21102 2.41746.19713l-.81205-1.3399zm11.29986-10.1368l.00374.008c-.53638-1.22235-2.66-1.1903-3.26158-1.0124-2.41853.71216-4.1217 3.19-5.12396 5.1416l.2794.66674c.1309.76932.2009 2.07662-.05822 4.2104.38466-.7394.74154-1.57763 1.04766-2.53286l1.15825 1.95908c-.00374.0171-.19714 1.00973-1.00385 2.418.6988-.24148 1.33668-.53638 1.92168-.86334l.25644.43595c-.1453.4055-.3136.7955-.49792 1.17748-.94775.46105-1.86078.7784-2.7236.9889l1.00707 1.7053v.00054c-.35902.4514-.72658.867-1.08773 1.2474l-.97553-1.6508c-.2366 1.015-.5214 2.1306-.8628 3.354-.6266.5107-1.0717.8078-1.1507.8612h-.001l3.5154 5.9269.0823-.023c4.4979-1.2721 5.3911-2.0804 6.9816-4.718.9478-1.5718 1.5563-3.751 2.0104-6.0947l.0369-.1827c.7378-2.6681 1.8512-3.4005 2.3256-3.7104.4899-.3227 1.021-.2228 1.021-.2228l-4.9001-9.0908zM17.5109 57.53363l.93492 1.57656c.55508-.2271 1.40133-.6278 2.1215-1.1941-1.21275-.0444-2.14875-.203-3.05643-.3825zm2.14125 3.61044l.87777 1.48093c.2591-.75222.62774-1.86345.88043-2.7674-.42686.343-1.1481.8767-1.7582 1.28647zm3.03185-10.2116c-.17096.43808-.25858.71482-.26125.7271-.0326.15655-.23934 1.06477-.77466 2.03923l.7805 1.41896c.1693-1.16786.266-2.86303.2553-4.1853z" fill="#002776"/><path d="M23.4025 57.43922l.14586-.1843c1.4462-1.81218 1.9468-3.32623 2.05257-3.744 0 0 .05824-.21692.10846-.4568l-.7272-1.23357c-.0695.24308-.1357.43648-.1357.43648-.4867 1.32867-1.0979 2.53286-1.8389 3.56984l-.3051.4258S21.9969 55.057 21.421 54.082c-.1667.26285-.3601.5209-.57914.76824.56524.9563 1.25014 2.11722 1.25014 2.11722l-.17844.1886c-1.08185 1.13313-2.2465 1.84368-2.95438 2.13858 0 0-.14265.07-.3211.12715l.39643.6817.4109.6913c.1074-.0577.2201-.1181.2891-.1662 1.0071-.6497 1.9351-1.3746 2.7396-2.1771l.3115-.3099s.9275 1.5701 1.1909 2.0157l.0663.1132c.2057-.2207.4114-.4573.616-.7042l-.1453-.2447c-.1373-.2351-1.1107-1.8827-1.1107-1.8827" fill="#E00034"/><path d="M20.82567 57.71025s.18966-.1357.45518-.44663c0 0-1.29822.03846-3.78727-.52944-.15173.00748-.21156.0048-.21424.0032l-.24468-.00747.10257.1742.19287.3248c1.5194.3622 3.49557.4814 3.49557.4814m2.31073-2.7495s.44182-2.5307.07586-5.2543c-.125.2639-.23186.5097-.3275.7335.09457 1.0541.13143 3.0228-.21636 5.3067 0 0 .30666-.3788.468-.7858m1.12956 1.7666s1.60808-.468 2.76366-1.1278c.02404-.0609.04915-.1228.07265-.1864l-.13463-.2297c-.47548.2656-1.52046.811-2.27535.9831 0 0-.1293.2831-.4264.5609m-1.7397 2.2213c-.1454.2057-.5354.4883-.5354.4883-.2217 1.013-.904 2.9144-1.1898 3.6431l.0096.0171c.0598-.0406.3275-.2174.7233-.5241.5449-1.373.9921-3.6243.9921-3.6243" fill="#E00034"/><path fill="#FFF" d="M28.52454 62.544l-.9189.7223.81846.8329-1.13687-.2682-.14104 1.1588-.499-1.05462-.9943.61225.515-1.04926-1.0995-.39695 1.1411-.2495-.3761-1.10535.9077.733.6298-.98195-.008 1.16786m5.203-13.86846l-.4029.03098-.0817.39642-.2751-.2965-.3596.1843.0588-.40068-.3671-.16722.3483-.203-.0978-.39108.3761.14638.2457-.32162.1197.38626.4039-.008-.2276.3339m-3.9632-.88434l-.4023.0299-.0807.39642-.2757-.29543-.3606.1822.0598-.3996-.3681-.1667.3494-.2025-.0978-.3926.3761.1469.2452-.32.1191.3852.4039-.0096-.226.335m.2283 5.1792l-.4034.031-.0807.3948-.2757-.2943-.3601.1801.0593-.3985-.3676-.1683.3499-.2004-.0988-.3943.3766.1485.2447-.3195.1197.3841.4044-.0085-.2276.3329m5.6516 2.9714l-.4029.0321-.0812.3953-.2757-.2954-.3601.1849.0593-.4018-.367-.1656.3488-.2041-.0983-.39.3761.1426.2457-.3189.1197.3846.4039-.0085-.2276.336m-1.0044-4.0427l-.2431.2356.1475.3066-.3013-.1576-.2447.2356.0561-.3355-.2981-.1608.3344-.0481.0614-.336.1512.3056"/><path d="M17.6069 42.50248c-.14265-.64002-.3697-1.26616-.33498-1.95053.468.85693.6849 1.8175 1.28112 2.621.57592.71964 1.2261 1.4286 1.85224 2.10815-1.3944-.06945-2.40465-1.59633-2.7984-2.77862zm-.29545-5.83237h.039c.56684 1.2315 1.06422 2.4976 1.69517 3.7045.02457.241.23613.428.1576.6887-.06945.1192-.19714.0305-.2762 0-.63576-.6197-1.17214-1.3538-1.47773-2.1471-.1918-.6897-.2121-1.4969-.1379-2.2459zm.55134-2.6402c.1089 1.1284.6603 2.0937.5908 3.2712l-.1176-.04c-.6304-.882-.9659-2.1776-.4734-3.2311zm.1971-.9066h.0395c.749.9953.788 2.3544.6507 3.6452l-.0203.0193c-.1427-.6891-.3398-1.3938-.5124-2.0878-.1133-.5027-.1918-1.0391-.1576-1.5765zm1.084 6.6396c-.3697-.6395-.6946-1.2993-.9462-1.9895.4039.6256.897 1.2421.9461 1.9896zm-.0983-2.3838c.2115-.0395.3985-.148.5908-.2361-.0593.4536-.374.8473-.3943 1.3394l-.039.2575h-.0396c-.3056-.3905-.5866-.7891-.7886-1.2229.2516.0503.3109-.2409.5123-.3152.0347.0695.0844.1427.1581.1774zm.788-6.5215h.0197v.1176c-.3254.7496-.5765 1.5322-.8869 2.2861-.2319-.9702.3205-1.7096.8671-2.4036zm.3349.078c.1282.5418.1084 1.2325-.0588 1.794-.2762.3986-.4734.8954-.9462 1.1428.1869-1.0396.5663-2.0002 1.0049-2.9367zm-1.1037 4.2173c-.0689-.227-.1085-.4637-.1181-.7089.1522-.1629.3649-.2762.5519-.3948 0 .3842-.2858.7389-.4338 1.1038zm1.3404-1.9115c-.2816 1.0349-.7544 1.9853-1.1829 2.9555-.1474-.7233.296-1.3345.5717-1.9505.1827-.3446.3643-.6892.6112-1.0049zm.0785.5321c.0443-.1186.1426-.2372.1971-.3349.0342 1.1081.3301 2.4677-.788 3.1724-.1779.1673-.3649.3046-.5717.3943.1228-1.1625.8024-2.1428 1.1625-3.2316zm.5123 2.7188c.2019 1.4783.1036 3.0794-.9066 4.1778-.0935.0599-.1673.1576-.2757.1779.0935-1.2763.6454-2.3656.8671-3.5869l.3152-.7688zm.1966 4.1971l.0988-.5112c.2019.9697.5171 2.2946-.1972 3.1526-.1923.3494-.2559.7485-.4333 1.1032-.0887-1.2661.0887-2.606.5315-3.7445zm-.335 4.0005c.0299-.5417.2911-.991.5914-1.4189.1186.5818-.2367 1.0691-.5124 1.5371-.054.0102-.054-.0785-.0791-.118zm.9066-1.0247c.0197 1.5964-.9067 2.8524-.6502 4.5716-.8078-1.0348-.187-2.4874.2169-3.5265.2708-.296.2463-.7143.4332-1.045zm.3355-.0395c.1474.842.2949 1.7588.1773 2.6414-.2319.8666-.483 1.723-.6897 2.6007-.0983-.0395-.1288-.1827-.1779-.2756-.468-1.8474.7346-3.1974.6902-4.9663zm.3542 3.7638c-.0102.9708-.3841 1.794-.4135 2.7589-.1486-.0491-.2955-.1277-.3938-.257.3595-.4087.1228-1.0631.2751-1.5562l.4535-1.1812c.0839.0193.0839.1475.0785.2356zm-.0593 2.9752c-.1325-.1506-.0834-.4583-.039-.6491l.0983-.3953.0395.0385c.0246.3612-.0342.6801-.0988 1.006zm-1.911-3.94c.0048.2752-.0834.5118-.0786.787-.5225-.7089-1.1828-1.3484-1.6359-2.1076.5914.3991 1.1972.7538 1.7144 1.3207zm.0593-.5134c-.2517-.1175-.4782-.304-.7095-.4717.2607.0289.5123.0876.7485.1768.0443.0983.0048.2068-.039.2949zm-1.0839-3.3889c.0742-.9953 1.0492-1.6166 1.4777-2.4639-.0198 1.2673-.6353 2.3358-.6107 3.6463v.8863c-.4333-.6304-.8078-1.286-.8671-2.0686zm-.2559-.2959c-.0593.7448.2901 1.3207.5518 1.9324-1.1973-1.0845-1.6802-2.5034-2.168-3.9026.6801.5621 1.1823 1.271 1.6161 1.9703zm.6694-4.8472c.281-.335.4931-.7191.8478-1.0049 0 .2324-.1774.4386-.2367.6699-.2613.7538-.3548 1.576-.67 2.3053-.054.4835-.1133.9712-.2559 1.4189h-.0396c-.0887-1.1433-.2367-2.4287.3542-3.3893zm-.2757 3.9417h.0395c.0048.1912-.1721.359-.2757.5321-.163-.0251-.2714-.2613-.3152-.4338.2313.0833.32-.241.5513-.0983zm.6304 7.0937c-1.0883-.8078-1.778-1.8822-1.9703-3.1136l-.0593-.3553h.04c.8078 1.1283 1.8218 2.1733 2.4234 3.3893.1929.2917.4429.5524.5716.8665-.4087-.0817-.6801-.5006-1.0055-.7869zm-2.5297-4.5593l.0149.0721c.0352.6101.1618 1.2341.2778 1.771.11.8741.5892 1.6252 1.194 2.2871-.2629-.2398-.5166-.4808-.7506-.7142-.0603-.0534-.1479-.0678-.2185-.039-.063.0262-.1036.0812-.109.1491.2966 1.5675.8164 2.7861 1.5932 3.7857-.0358.0075-.0748.0225-.1015.0716l-.0224.0411.0133.0444c.2121.7036.5289 1.3666.8339 1.9858.0005 0 .3446.5893.3446.5893s.0769.132.1571.2682c.0598-.0834.117-.1672.1715-.2522-.2105-.3323-.4039-.6945-.4942-.9889.2212.1314.4893.3526.7458.5653.0582-.1079.1122-.2142.1624-.3189-.3259-.2383-.6582-.5193-.9082-.7581.3013.1464.6683.3387 1.0124.5316.0518-.1186.0988-.2324.1405-.3419-1.0942-.7015-2.1498-1.9148-2.6312-3.0078l-.0192-.2175c.803.9034 1.8399 1.8917 2.8668 2.5783.0326-.1154.0561-.2084.0721-.2757-1.0664-.6448-2.019-1.6236-2.8401-2.6157-.1779-.2772-.3793-.5481-.414-.8879 1.0541 1.154 2.425 1.6215 3.533 2.6889.1213-.312.2847-.7068.492-1.1545.0534-.859-.093-1.7368.0139-2.6178.2505.4018.4161.9264.5892 1.4243.0817-.1496.1661-.2997.2553-.4514-.0427-.1213-.0833-.2426-.1223-.3622l-.1843-.5332-.0876-.2094c-.1421-.343-.2917-.6956-.4969-1.0215-.0294-1.2448-.1165-2.5542-.538-3.7125l-.008-.0213-.0326-.0315-.0182-.0187-.1486-.0828s-.0796.0401-.1036.0524c-.0326-.507-.0951-1.0188-.1635-1.5178l-.1309-1.0332c.0005-.0096.0005-.0192.0005-.0288 0-.2041-.0753-.3884-.1485-.5679-.0673-.1645-.1287-.3141-.1287-.4749 0-.0812.0155-.1646.0523-.2543l.0069-.0166.0016-.0182c.0161-.2276.023-.4546.023-.6811 0-.4151-.0213-.8265-.0427-1.2287l-.0395-.9376c.0005-.0069.0005-.0133.0005-.0208 0-.1512-.0571-.4514-.1175-.7687l-.0988-.5925c0-.0021-.0155-.3595-.0155-.3595-.015-.3702-.0299-.7533-.0849-1.1107l-.0043-.0272-.0967-.1293-.0331-.0107c-.1507-.0491-.2613.0534-.3275.1149l-.0022.00106c.032-.29114.0534-.5839.0534-.8601 0-.5882-.0567-1.1101-.1015-1.4318l-.0016-.0128-.0198-.039-.0155-.0395c-.0187-.054-.0625-.18164-.2116-.18164h-.054l-.0032.016-.1052.1309c-.7074.6935-1.4783 1.5226-1.5835 2.6135 0 .0027-.0214.2543-.0214.2543-.0038.0721-.008.141-.016.2078-.0695-.0967-.1395-.1934-.1395-.1934l-.3766-.5155-.085.1004-.08017.0807-.2517.9825c-.1101.3873-.2239.7891-.2907 1.2047-.0176.1293-.02408.2586-.02408.3863 0 .2474.02564.4905.0508.7282 0 0 .0059.0609.0102.108-.0604-.0219-.1288-.0305-.2068.0246l-.0364.0251-.0091.0428c-.0967.4503-.1448.9365-.1448 1.428 0 .585.0769 1.17.2116 1.7112-.0486-.0102-.0972-.0155-.1416.0032-.0657.0278-.11007.0828-.1234.15067-.00587.149-.0085.29595-.0085.4418 0 1.4825.3136 2.81655.9221 3.9887-.0038.0011-.0823.0363-.0823.0363z" fill="#A39161"/><path d="M56.74416 35.60942l.0919-.1608s.03258.05128.05876.09402c-.0032-.1122-.00534-.2244-.01015-.3355-.0171-.23615-.02885-.47282-.0358-.71056-.77626-12.95602-8.50254-23.13503-17.9272-23.13503-9.09233 0-16.60438 9.4754-17.8139 21.77697.01014.16242.01762.3259.02403.48724 0 0 .0155.35687.0155.359l.09883.5925c.01763.09295.03472.18217.05022.26872.6379-12.95175 8.28243-23.16976 17.62533-23.16976 9.61645 0 17.43248 10.8233 17.66274 24.29595.0422-.12768.09456-.2495.15974-.36275M39.4171 68.49952h-.29972v-.38733h.30505c.1576 0 .24148.0459.24148.1907 0 .1474-.0822.1966-.2468.1966m.4397.5129l-.0107-.1795c-.0064-.1368-.0315-.2148-.1506-.2533.1144-.0438.1806-.1491.1806-.2923 0-.2185-.1346-.35-.3558-.35-.0064 0-.0294-.0022-.0662-.0022h-.5433v1.2598h.2084v-.5182h.3174c.1667 0 .1929.07.1998.2014l.007.1506c.0038.0662.0075.1207.0316.1661h.2345v-.0368c-.047-.0257-.0481-.0716-.0523-.1459m.1988.2521c-.1896.1923-.4204.2879-.6929.2879-.2709 0-.5022-.0957-.6924-.288-.1886-.1918-.2842-.4242-.2842-.6983 0-.2693.0962-.5.2858-.6913.1907-.1923.4215-.288.6908-.288.2703 0 .5017.0956.6929.2879.1897.1913.2842.422.2842.6913 0 .2741-.0945.5065-.2842.6983m.1133-1.5007c-.2222-.2201-.4909-.3307-.8061-.3307-.3126 0-.5802.1106-.8014.3307-.2217.2222-.3334.4904-.3334.8024 0 .3168.1101.5866.3307.8088.2212.2222.4888.3339.8041.3339.3152 0 .584-.1117.8062-.3339.2217-.2244.3334-.4926.3334-.8089 0-.3125-.1116-.5807-.3334-.8024m16.946-13.3822c-.851-1.396-1.2213-2.4735-1.3692-2.8828-.1512-.4113-1.0012-2.871-2.2892-4.626-.8569-1.1625-2.3988-2.3421-3.4534-3.0495-.0144-.009-.0491-.0315-.0961-.0614.5401.5369.9665 1.1481 1.3789 1.7433 0 0 .2436.35.2495.358l.0668.0993c.2228.3275.4996.7356.4376 1.1641l-.0064.0438-.0171.0422c-.1346.3291-.5161.4466-.7795.3697-.2378-.0593-.3889-.1624-.5348-.2623 0 0-.2239-.1411-.2201-.1395l-.2468-.1309c-.834-.4418-1.5536-.8244-2.3977-1.1716 0 0-.0134-.007-.0161-.008.0267.0449.0465.0801.0491.085.2063.4434.5498.8831.8003 1.023l.0989.0555.0508.101c.0582.1181.1544.2287.2559.3462.1645.1907.3547.4263.429.7474.071.0716.1688.1688.1688.1688.4771.4744.9702.9648 1.4008 1.5033l.0208.0262s.2549.4792.3254.6133c.4077.2191.6716.6096.8805.9387l.1892.2869.0112.0246c.196.4263.4071.9301.4819 1.4371l.0764.5268s-.3804-.0855-.7539-.171c.4744 1.1492.7651 2.3758 1.4692 3.4272 1.2517 1.5803 2.7102 2.5137 4.4407 3.1884.0828.0695.2564.0844.2372.2378-.8495 1.4521-1.5648 3.0324-2.495 4.4524-.1837.0085-.3526-.0107-.5112-.0599-1.3869-.4626-2.5441-1.3073-3.564-2.5168-2.0243-2.8576-2.7979-6.2325-4.5267-9.213-.1399-.015-.3419-.0123-.6534.032-.5647.0486-1.0519-.1053-1.3719-.4328l-.0615-.0636-.0256-.0844c-.1587-.5145-.4931-1.1743-.7555-1.6247-.1683-.1944-.3104-.398-.4408-.6021l-1.8025 2.6381c0 .0006-.0016.0027-.0016.0027s-.4915.7191-.8276 1.2106c0 0 .0096.0016.0278.0048.101.0161.4894.0812.8233.1721.0016.0005.0032.0005.0053.0011.0556.0144.109.031.1597.0475.0471.015.1.0396.1566.0695.0085.00374.0165.0075.0251.0123.0491.02724.102.0588.1597.0967.031.0198.0625.0417.0951.0646.0059.0038.0107.007.0166.0112l.0016.0016c.4295.3029.9605.8094 1.249 1.3121.4066.7063.9585 2.0601 1.1348 3.049.1752.9932 1.3404 4.6127 2.8572 6.6968 1.2833 1.7577 3.7472 3.7077 6.0792 3.7077L60.97 56.625s-3.00033-.8489-3.8546-2.2439" fill="#000"/><path d="M48.76096 48.74858c-.35046-.07854-.5759-.44717-.86815-.66995-.1527-.17683-.2703-.3681-.4135-.55134-.0796-.039-.1351.0026-.1383.0983-.1474.5064.8286 1.4152 1.1812 2.1482.0706.1907.1988.4092.1197.6106-.1923.1127-.7768-.023-.928-.077-.3413-.2046-.5401-1.0658-.983-1.6177-.0892-.0449-.0844-.1774-.1966-.1576-.1432.1277.0144.2756.0192.414.1229.3104.3986.5812.3735.9264l-.1768-.0198c-.374-.5145-.6988-1.0643-1.123-1.5376-.1774.133 0 .3152 0 .4733.1528.3948.4381.7287.4931 1.1614 0 .1389-.1827.0699-.2564.0593-.7095-.6609-.9264-1.5948-1.5172-2.3443-.0887-.0054-.1186.0796-.1581.1378.1186.6652.577 1.193.5135 1.9319-.0353.0192-.0502.079-.0994.0587-.4434-.6443-1.1385-1.3645-.6897-2.207.2271-.7191-.3643-1.395-.0197-2.0889.2217-.2319.547-.1967.8478-.1582.1523-.2062.0732-.5215.3745-.6502.2559-.1721.6545-.0983.9056.04.9708 1.2015 1.7737 2.4725 2.7199 3.6852.0054.1127.1619.2505.0203.3339m-5.3606-6.7588c-.2025-.1662-.3841-.3884-.6304-.4525-.1058.0117-.0914.0903-.0914.1351.1223.1774.5882.2458.4466.4557-.3206.1972-.6016-.1677-.8869-.2954-.8825-.6801-1.7293-1.4782-2.5617-2.2262-.2148-.2057-.3782-.4792-.3152-.5332.047-.0646.3745.1357.4841.1908.1095.055.1063-.0727.1063-.0727-.7389-.8067-2.1466-1.3736-2.0691-2.6397.0198-.1026.1042-.202.1971-.2559.2874-.2207 2.6419.5048 3.6265 1.0834 1.0637.5716 2.0099 1.5221 2.6996 2.5414.0096.0502.0246.0988.0198.1581-.0647.1031-.2153.0064-.3553-.0989-.172-.1181-.3254-.2751-.5118-.3548l-.0599.0598c.3996.5215 1.2502.8516 1.2448 1.591l-.1223.0139c-.3521-.2345-.6935-.5508-1.0626-.679-.0946.0444 0 .1186.0384.1576.367.2613.7512.5214 1.1048.8276.078.1084.0978.2617.0583.3937h-.1181c-.2954-.2116-.5406-.3986-.9258-.5514-.0791.1576.0983.234.2757.3542.2736.1533.8896.3312.6299.6512-.4819.3788-.89-.1966-1.2213-.4541m-1.0049 8.8289c-.648 1.2555-.9766 1.8164-1.9703 3.3294-.2105.3868-.8131-.46-1.8116.1432-.1031.04-.4103.1212-.4937.0368.0396-.2244.2805-.2084.4338-.2794.1913-.0636.7448-.0887.6625-.1854-.3547-.1886-.8211-.4007-1.2538-.3462-.227.1191-.4984.3531-.7495.1795.4883-1.1935 1.1278-2.3256 1.7341-3.4689.133-.5711.8323-.858.9851-1.42.0251-.561.0844-1.1129.2565-1.6161.0887-.0583.2025-.1128.2565-.2159.0689-.296-.2463-.6849.1186-.8479.3243-.1079.7293-.0695 1.0049.1186.3003.3056.3596.7095.6299 1.0241.1876.6854-.0096 1.5274.4734 2.0878.1822.5278-.1277.9953-.2762 1.4601m-.1957 4.1721c.0801 1.7144.0342 3.0911.0144 4.8456.0118.4045-.016.8436-.3552.998-.7073.3243-2.3421.7496-2.5323 1.2881-.2874-.562-1.5531-.8211-2.356-1.1198-.4371-.2003-.4632-.5914-.4728-1.1433-.0038-1.678-.0177-3.1574 0-4.8092 1.8025-.0983 3.6985-.1122 5.702-.0593m-4.1821-21.418l-.0604-.2169c.5818.3104 1.1353.7351 1.6172 1.2416.5171.4648 1.1058 1.2319 1.1021 1.319-.0919.0769-.4878-.359-.8072-.3542-.202.0481.0577.3355-.0989.3942-.2121.078-1.2368-.3991-1.6156-.9264.0545-.0241.171-.0214.1565-.0983.0513-.0855-.3959-.2383-.3339-.3948 0 0 .1021.0876.1774.0604.1864-.1779-.3393-.3676-.0396-.5129.0155-.1774-.1859-.3083-.2543-.4312.0427-.0272.1111-.0369.1565-.0807m-2.6573-8.6473c-.1608.0177-.4968-.2404-.6299.0396-.0593.163.0588.4531-.1773.4926-.1378.0149-.3296.0069-.335-.1373-.0353-.1923-.0433-.4092.0791-.5717.1223-.2613.4632-.4397.8382-.3751.1624.0326.3248.1464.4028.3553.0347.1234-.062.1656-.1779.1966m-3.2509 2.4634c.1923.2853-.6651.4285-.0785.5519.1106.444-.6854.5663-.9856.8869.0096.054-.01283.1458.09937.1181.2757-.0246.6822-.4921.7479-.2565.05984.3211-.30986.3547-.49257.4739-.2265.1079-.4979.2356-.6112.4915-.0438.126.1528.0844.218.0598.2356-.0689.55932-.4675.6502-.335.039.1229-.05508.241-.1384.335-.3254.2458-.8527.1961-1.0049.6496-.0155.1148.1929.1773.3152.1191.2068-.094.4776-.5246.5914-.3553.0491.148-.0695.2954-.1977.374-.5615.5032-1.1529.9312-1.8325 1.1427-.0838-.1181-.0149-.2762.0198-.3938.4969-1.4831 1.1529-2.90206 2.0104-4.2366.1816-.2116.5765-.35905.7677-.0983-.0096.28525-.4135.2169-.453.4728.1143.0892.2521 0 .3745 0m4.0784-.76827c.4274-.929.5086-.7821 1.1427-.7094.2773-.0406.4386-.21635.5914-.414l-.0395-.0588c-.359.0839-.7143.359-1.1032.1972-.1528-.1132-.187-.3002-.1378-.4728.335-.4044 1.099-.0507 1.50287-.3659.1315-.1625-.2019-.2255-.2804-.2848-.0743-.0396-.2174.0096-.2174-.1176.148-.1138.3739-.05555.547-.06944.2821-.0026.6678-.1458.6753.0882 0 .4189-.7073.5626-.6309.8479.1026.19235.2976.10526.4536.039.3836-.1672.6993-.5022 1.1026-.6304.0844-.01976.133.0246.1378.09884v.0593c-1.0877.5663-2.0921 1.3495-3.1131 2.0884-.188.1101-.3691.2223-.5908.1582-.1629-.0989-.0251-.3008-.04003-.4536m.0801-2.0494c.1271-.133.3291-.1528.491-.1378v.0983c-.0785.1026-.2554.2415-.4333.1581-.0283-.0353-.078-.0641-.0577-.1186m15.9015 27.373c-.273-.3857-.5321-.952-1.02414-1.1438l-.3569-.671c-.48774-.6112-1.05404-1.1529-1.615-1.7139-.0406-.4739-.4776-.7084-.68116-1.1177-.36865-.2057-.7517-.7522-.9542-1.1881-.1576-.281-.3857-.6592-.5492-.9328.3136 0 .6978.2324.9985.3692.9302.3825 1.7102.8072 2.6643 1.3126.2784.1517.3996.3018.6732.3702.0957.0283.2891 0 .3526-.1544.0476-.3248-.2569-.7212-.4477-1.0087-.585-.8324-1.1214-1.6834-1.9142-2.3534l-.4183-.4205c-2.1124-1.5226-3.128-3.8086-5.1229-5.4787-1.6246-1.1123-2.9362-2.7439-4.3744-4.1772-.4931-.4242-.9899-.8425-1.5365-1.1428-.8676-.8622-2.1092-1.709-1.6759-3.074.249-.7656.5081-1.6209 1.2625-2.1477l.709-.8868c1.044-.7736 2.1333-1.4387 3.3695-1.7539.093-.0438.0299-.1031 0-.1576-.3991-.2901-.8788-.375-1.3794-.4332-.9515-.1181-1.9067-.1181-2.8566 0-1.2859-.3938-2.9859-.5524-4.2173.0785-.7874.4189-.7714 1.3789-1.1432 1.7935-1.443 1.3602-1.9217 2.9624-2.5863 4.6367-.132.28904-.2954.6577-.4798 1.0391 1.2822-7.348 5.2971-12.7124 10.0556-12.7124 5.7913 0 10.4868 7.9432 10.4868 17.7413 0 2.14606-.2292 4.2008-.6411 6.1043l.2901.11326c.422-1.9409.6528-4.0362.6528-6.224 0-9.969-4.8333-18.0501-10.7955-18.0501-5.1074 0-9.383 5.9291-10.5059 13.8942-.1394.2372-.2853.4605-.437.6497-.2313.5492.0535 1.6215.1843 2.0494-.0005.0048-.0005.0091-.0005.0133l-.0203.0775.015.0337c-.0192.4408-.0326.8837-.0326 1.3324 0 2.4586.2949 4.8029.8276 6.9388.0989-.0112.2052-.0192.3179-.0235-.531-2.1241-.827-4.4577-.827-6.9089 0-.2281.0054-.4546.0102-.6801 1.3832 2.1728 2.4458 4.5139 4.1559 6.567 1.0397 1.0295 2.2663 1.6749 3.626 1.9709.8965.9312 1.4831 2.0633 2.2262 3.0938.2714.468-.0833.92-.0785 1.3981.0347.6021-.0101 1.1134-.2762 1.5958-.4888.8714-.7469 1.8405-1.3591 2.6627l.3639.6748.3516.6577-.7373-.125c-.0037-.0005-.4017-.0646-.757.1699-.0529.0353-.1154.07535-.1838.1245.1079.0679.2244.1656.2281.2741.0176 3.2637-.0144 3.4624 0 5.187.0401 1.24586 1.4489 1.5755 2.4356 1.9452.6865.2409.8928.7709.8928.7709s.1961-.4744.8938-.7709c.9862-.3697 2.395-.69934 2.4362-1.9452.01445-1.7246-.0192-1.9233 0-5.187.0006-.01604.0048-.0321.0096-.0476-.1458-.1031-.273-.1779-.3552-.2051-.3686-.11915-.9531-.2105-.959-.21104l-.57166-.0886 1.1534-1.6899c.5022-.8617 1.0519-1.7053 1.459-2.6098.148-.3836.1186-.843.1779-1.2603.4386.5861.7089 1.2731 1.2208 1.8448.2874.4926.6298 1.1775.7938 1.7107.29065.2981.725.3547 1.07866.3243 1.2063-.1731 1.1689.2302 1.3842.2644 1.1674.17208 2.3261-.11 3.5864.0262l.9798.22178c-.0678-.4621-.2703-.9424-.4519-1.33613m-8.3514 4.2066c-.1672-.2912-.4274-.5813-.6897-.8243-.0924.0668-.1592.1448-.1629.2228-.0455 1.5979-.0417 3.1339-.0417 4.7628 0 1.4376-2.176 1.8752-2.6819 2.0926-.3836.1785-.7122.6283-.904 1.0001h-.009c-.1902-.3718-.51875-.8216-.90234-1.0001-.50643-.2174-2.6824-.655-2.6824-2.0926 0-1.629.0032-3.1649-.0411-4.7628-.0069-.1502-.2441-.2998-.4509-.3703-.468.491-1.02733 1.3404-1.459 2.8988 0 0-.03633.1822-.03633.1795-.16184.8367-.3339 1.59317-.5177 2.2877.0139.00967.0235.0166.0235.0166.351.5578.9141.803 1.5755 1.09096l.7704.3644c.0257.0123.015.00853.0374.0267 0 0 .8452.6726.8516.678.9237.77143 1.7219 1.4371 3.0511 1.3164 1.22024-.195 2.0173-.9659 2.50617-1.4377l.374-.3334c.0134-.0118.0379-.0326.0524-.0422 0 0 .7352-.4889.7453-.4958.6513-.405 1.6028-.9974 1.957-1.5771-.1378-.4611-.2318-.8345-.2735-1.0696-.1651-.9275-.695-2.2428-1.092-2.9315" fill="#000"/><path d="M45.8255 59.96643c-.09083 0-.17204.05556-.20463.1405-.28956.74955-1.39278 1.43552-2.19896 1.93665l-.7351.48883c.0166-.0112-.3852.3441-.3852.3441-.508.491-1.3575 1.3132-2.6936 1.5269-1.5066.1379-2.4009-.608-3.347-1.3981l-.8446-.6726c-.0267-.0166-.733-.3446-.733-.3446-.679-.296-1.3206-.5748-1.7336-1.2303-.0304-.0491-.0801-.0849-.1373-.0972-.0571-.0128-.1175-.0021-.1661.03-.2099.1352-.3462.3975-.4049.779-.0021.0112-.0026.0225-.0026.0337 0 .0604.0246.1191.0706.1608.7544.6983 1.6696 1.1294 2.4693 1.4783.0556.0353.1656.1058.1656.1058.1037.0588.1528.0962.1785.1299-.0497.0427-.117.0721-.227.1015 0 0-.0802.0235-.1202.0358-.9948.1245-1.8501-.1955-2.4731-.929-.0486-.0566-.1223-.0855-.1961-.0753-.0737.0097-.1373.0561-.1699.124-.0117.0251-.2965.6294-.4049 1.0263-.0224.0812.0038.1672.0674.2233.5498.4787 1.1155.7223 1.8902.8153.3895.0401.7731.0337 1.1449.0283.6112-.0085 1.1957-.0122 1.7475.1769-.3146.062-.71.1411-.71.1411-.5438.0962-1.0572.187-1.7299.4205-.0774.0267-.1335.094-.1453.1753-.0021.0182-.0037.0363-.0037.0556 0 .2063.1544.4573.3825.8035l.1282.1998c.0497.078.1475.1224.2372.1016l.1026-.0235c.5578-.1277 1.3992-.3206 1.8768-.483 1.8854-.6037 3.2766-.4749 5.6812.0417.0102.0021.5701.1464.5701.1464.2613.0802.5311.1635.873.1795.0609.0027.1213-.0208.1645-.0641.4787-.4765.7475-.7784.7971-1.007.0032-.0155.0054-.031.0054-.0465 0-.0924-.0593-.1784-.1512-.2078-.6053-.2008-1.1796-.2687-1.7347-.3333-.2874-.0342-.5834-.0764-.8847-.1298.2073-.0913.4466-.1699.6876-.2105.4696-.1106.9104-.1148 1.3763-.1202.8976-.0107 1.8256-.0213 2.8422-.796.0545-.0427.086-.1079.086-.1747 0-.016-.0016-.0326-.0048-.0481-.0475-.2088-.2147-.9092-.3921-1.1315-.0395-.0491-.0978-.079-.1603-.0817-.0625-.0032-.1234.0198-.1672.0641-.4386.4445-.8254.7619-1.3987.9734-.5224.1731-1.3676.1737-1.4755.0374-.0091-.0299.0384-.1426.0903-.1741 1.0262-.4722 2.1535-1.2597 2.9196-2.044.0508-.0523.0716-.1325.0561-.2046l-.0764-.3574-.1079-.4781c-.0225-.1004-.1095-.1613-.2116-.1613h-.078z" fill="#A39161"/><path d="M42.4585 64.33566c.49792-.11593.9766-.1218 1.4398-.12715.7597-.0085 1.61877-.0181 2.52272-.6539.03686-.0256.05395-.0673.04167-.1095l-.1705-.5812c-.0102-.0347-.0369-.0587-.0716-.0684-.0342-.0091-.0695.0032-.0972.0278-.4429.4162-.8335.6678-1.3052.8415-.3959.1315-1.7256.3339-1.8982-.1635 0-.0005-.0182-.1175-.0182-.1175 0-.1779.1132-.375.2692-.4691.968-.4461 1.9986-1.1593 2.7476-1.9024.0245-.0245.0358-.0603.0283-.0951l-.0535-.2516c-.008-.0406-.0401-.0721-.0807-.0806-.0401-.008-.0818.0086-.1058.0428-.4851.6913-1.4233 1.2742-2.1087 1.7-.0022.0016-.7127.4739-.7127.4739-.0075.0064-.3489.3136-.3489.3136-.5391.5209-1.4356 1.3875-2.8882 1.6204-1.6562.1502-2.6446-.6742-3.6009-1.4713-.0032-.0032-.7923-.6352-.7923-.6352-.0251-.0181-.7041-.3328-.7041-.3328-.6427-.2799-1.255-.5764-1.7064-1.1411-.024-.0299-.0598-.0513-.0978-.0443-.0379.008-.0663.0283-.0769.0652l-.063.2084c-.0118.0385-.0016.0892.0294.1149.6854.6015 1.5023 1.0001 2.2828 1.3404l.0384.0246.1448.0903c.1538.086.3798.2127.3798.4547l-.0016.0396c0-.0005-.0139.0449-.0139.0449-.1154.2094-.32.2644-.4845.3088-.0027.001-.125.0363-.125.0363-1.0113.1341-1.8928-.1491-2.5772-.8121-.0251-.0246-.0604-.0363-.094-.0288-.0342.0075-.0609.0299-.0737.062l-.2121.5471c-.016.0417-.0016.085.0337.1138.4691.3756.9446.569 1.5899.6465.3724.038.7613.0326 1.1043.0267.8137-.0128 1.6551-.0251 2.4346.4627.0342.0214.0555.0599.0555.0999l-.008.0417c-.0326.0801-.2297.1538-.2912.1619-.0134.0011-1.0926.2159-1.0926.2159-.5107.0903-.9456.1736-1.4831.3457-.0305.0096-.0567.0289-.0679.0583-.0113.0299-.0102.0593.0058.0866l.2725.4509c-.0006-.001.0507.0791.0507.0791.0235.0369.0679.0545.1101.0449.4659-.1063 1.3329-.304 1.7993-.4632 1.9607-.6277 3.3877-.4974 5.8457.031l.6144.1565c.1918.0588.4242.1256.6908.1496.0321.0027.0609-.0059.0828-.0304l.4899-.5321c.0246-.0262.031-.0609.0209-.0957-.0101-.0347-.0406-.0588-.0753-.0684-.5027-.1362-.9884-.2041-1.3976-.2521-.4723-.0556-.9606-.1127-1.4825-.2538-.0422-.0112-.0743-.0449-.0828-.0876-.0027-.0582.0133-.0913.0406-.1132.297-.2393.8425-.4685 1.2971-.5454" fill="#FFF"/></g></svg>