<svg width="80" height="80" viewBox="0 0 80 80" xmlns="http://www.w3.org/2000/svg" xmlns:xlink="http://www.w3.org/1999/xlink"><title>PortAdelaide</title><defs><path id="a" d="M0 79.6608h79.6608V0H0z"/></defs><g fill="none" fill-rule="evenodd"><path fill="#000" d="M70.8063 37.1027l2.837-11.759-11.2258 3.2274V14.752l-39.7444-.0053v28.3747l-3.134.9166 2.006 2.2613L4.002 52.364l18.671-1.9956V68.592l13.1376.0043h26.6067v-25.748l3.682-.4184-3.682-4.192v-.182"/><path fill="#008AAB" d="M25.093 42.4166l.0028-13.3682H60.003v.2162l-10.4014 2.9862 2.196 2.4323-2.6852.767-.8587-.92-3.3325-1.349-1.605 1.11-1.9696-.663-2.3352 1.909-1.856-.182-1.7616 1.8-1.633-.337-2.4802 2.685.18 1.058"/><path d="M27.4853 21.5663h.888v-2.093h-.888v2.093zm0 4.6814v-2.7473h2.057l1.2447-1.1492v-3.6894L29.59 17.536h-4.4945v8.7117h2.3898zm6.8297-1.9342h.8762v-4.852h-.8763v4.852zm-1.1796 1.9342h3.2528l1.195-1.1376v-6.425l-1.195-1.148h-3.2528l-1.1944 1.148v6.425l1.1944 1.138zm6.4798 0h2.6856l.5767-4.6257.5747 4.6257h2.6845l1.145-8.7117h-2.178l-.4513 4.454-.5343-4.454h-2.444l-.599 4.2735-.438-4.2735h-2.179m14.684 8.7117v-2.1764h-2.53v-1.2097h2.342v-2.095h-2.342V19.63h2.556v-2.094h-4.943v8.7117m8.487-5.3702h.94v-1.5152h-.94v1.5152zm0 5.3702v-3.5072h.94v3.5072h2.377v-3.544l-.963-.907.977-.9575v-2.1545l-1.207-1.1487h-4.513v8.7117h2.39zM27.51 49.8527v16.331h-2.414l-.007-16.073m7.0623-.7513v16.8243h-2.413V49.6154m6.2028 16.5684h-1.56l-.003-4.1784m0-2.4224l-.007-7.8407v-5.469l1.68 5.077 1.302.3745m13.366-2.292V59.497l-2.042-2.411-.82-5.1768m7.504-8.2557v22.5302h-2.089l-.325-1.5412v-20.716m7.058-.8028V66.184h-2.416V43.3992m13.714-15.772l-1.956 8.1424-10.383 1.1513 3.806 4.356-9.822 1.079-.4683-.682-4.1674-2.148-.008-2.271 6.4017-1.916-2.1176-2.322" fill="#FFF"/><path fill="#A7A9AC" d="M46.8852 42.0245l1.1503-.758 3.237 1.6693-1.334 4.0845-3.2678-3.58m1.632 5.1717l-2.971 1.5418-3.618-1.1636-3.7616.6882-1.775-3.7812 4.128-.7222-1.827 1.3006.543.9708 2.267-1.3038 4.211-1.6214m-4.063-.8562l-1.506-1.6085.664-5.6533 1.098-.8985.996.336-.919 5.6343-.912.23 1.388 1.8576m-3.805.4376l-1.879-1.2788.261-4.6374.971-.991 1.036.1004-.325 5.0866-.805.1822 1.621 1.425m-4.613.5354l-1.047-.682-.59-3.7106 1.279-1.387.864.178.1278 4.214-.845.202 1.146 1.078m9.175-9.029l.313-.216 1.4615.592-.6274 4.767-1.381.38.29 2.459-.665.084-.914-2.048"/><path fill="#FFF" d="M31.7046 42.0424l-9.2784 2.685 2.0463 2.2242-8.5556 2.5964 15.068-1.9272-2.317-2.5088 3.514-.4228"/><path fill="#A7A9AC" d="M49.79 66.1838l-.371-3.9012-3.6284-4.6618-.2714-4.9665-3.6904-1.6835-2.7016.762-2.138 9.338 2.8024 5.113"/><g transform="translate(.167 .667)"><path d="M60.4618 70.591h-.361v-.4662h.3674c.1895 0 .291.0552.291.23 0 .1768-.0993.2363-.2974.2363zm.529.6172l-.0123-.2167c-.0085-.1646-.0388-.2576-.1816-.3038.137-.052.216-.179.216-.3515 0-.2635-.162-.4217-.428-.4217-.008 0-.035-.0027-.08-.0027h-.654v1.5157h.25v-.6235h.382c.2 0 .231.0845.24.2427l.008.181c.004.0803.008.1456.037.1998h.282v-.0435c-.056-.0314-.059-.0866-.063-.1758zm.239.3032c-.228.232-.5062.3468-.834.3468-.3254 0-.6048-.1147-.8326-.3468-.2273-.2305-.3425-.511-.3425-.839 0-.325.1157-.6034.3446-.8333.2295-.231.5067-.346.8306-.346.325 0 .603.116.833.347.228.23.342.509.342.834 0 .328-.114.609-.342.839zm.136-1.8056c-.2667-.265-.5907-.3983-.97-.3983-.376 0-.6977.1333-.9638.3983-.2666.267-.4015.59-.4015.9665 0 .3797.1328.7042.3978.972.266.2675.588.402.9676.402.379 0 .703-.1345.969-.402.267-.2694.402-.5928.402-.972 0-.3776-.135-.7-.402-.9665z" fill="#FFF"/><path fill="#000" d="M70.628 36.4212l2.8342-11.749-11.2157 3.2243V14.0902l-39.7098-.0053v28.349l-3.1328.915 2.003 2.259-17.527 6.06 18.655-1.994v18.209l13.126.004h26.584V42.162l3.678-.4184-3.679-4.188v-.1816"/><path fill="#008AAB" d="M24.9542 41.7303l.0026-13.3564h34.8776v.216l-10.393 2.983 2.1943 2.43-2.6835.765-.857-.919-3.33-1.348-1.6032 1.108-1.9682-.663-2.333 1.907-1.855-.182-1.7605 1.798-1.6304-.337-2.478 2.683.179 1.056"/><mask id="b" fill="#fff"><use xlink:href="#a"/></mask><path d="M27.345 20.8987h.8868v-2.0913h-.887v2.0913zm0 4.6772V22.83h2.0546l1.2432-1.1482v-3.686l-1.196-1.1247h-4.49v8.705h2.388zm6.823-1.933h.8753v-4.848h-.8752v4.847zm-1.1784 1.932h3.2497l1.1944-1.137v-6.419l-1.1944-1.148h-3.2497l-1.1933 1.147v6.419l1.1933 1.137zm6.474-.001h2.6836l.5763-4.622.5735 4.622h2.683l1.1434-8.704h-2.1758l-.451 4.45-.5342-4.451h-2.4418l-.599 4.27-.4382-4.27H38.306m14.6715 8.704V23.4h-2.528v-1.208h2.34v-2.0934h-2.34v-1.1354h2.554v-2.092H48.065v8.7043m8.4798-5.3652h.9384v-1.514h-.9384v1.514zm0 5.3654v-3.505h.938v3.504h2.3743v-3.54l-.962-.907.976-.9567v-2.152l-1.205-1.1476h-4.509v8.7043h2.388zM27.3684 49.16v16.317h-2.4116l-.007-16.059m7.0566-.751v16.81h-2.411V48.923m6.197 16.5542h-1.5592l-.0032-4.1748m-.0002-2.4206l-.007-7.8333v-5.4653l1.6777 5.0733 1.3017.374m13.3544-2.29v10.056l-2.0404-2.4095-.8194-5.1727m7.4972-8.2483v22.511h-2.0854l-.326-1.5395V43.239m7.0517-.802v23.04H57.42V42.712m13.7027-15.7583l-1.9538 8.1355-10.375 1.1503 3.801 4.3532-9.813 1.0786-.468-.6814-4.164-2.146-.007-2.269 6.395-1.915-2.115-2.32" fill="#FFF" mask="url(#b)"/><path fill="#A7A9AC" mask="url(#b)" d="M46.7276 41.3388l1.1487-.7573 3.2342 1.668-1.333 4.0808-3.2645-3.5773m1.631 5.1674l-2.9682 1.5407-3.6156-1.163-3.7584.689-1.7737-3.778 4.125-.721-1.826 1.3.543.97 2.265-1.303 4.207-1.619m-4.06-.855l-1.505-1.607.664-5.649 1.097-.897.995.336-.918 5.63-.911.229 1.386 1.856m-3.801.438l-1.877-1.278.262-4.634.97-.99 1.034.1006-.325 5.082-.804.182 1.62 1.424m-4.609.5348l-1.0463-.6814-.589-3.707 1.278-1.3855.8635.177.1274 4.211-.8432.201 1.145 1.078m9.168-9.022l.3128-.217 1.46.591-.6277 4.762-1.38.381.2903 2.456-.6644.0827-.9136-2.0453"/><path fill="#FFF" mask="url(#b)" d="M31.5604 41.3564l-9.2704 2.683 2.044 2.222-8.548 2.5943 15.0553-1.9252-2.315-2.507 3.511-.4223"/><path fill="#A7A9AC" mask="url(#b)" d="M49.6298 65.4772l-.3707-3.898-3.625-4.6576-.271-4.9623-3.688-1.6825-2.699.762-2.136 9.329 2.8 5.1094"/><path fill="#000" mask="url(#b)" d="M70.6393 36.4357l2.837-11.759-11.2258 3.2274V14.085l-39.7444-.0053v28.3747l-3.134.9166 2.006 2.2613L3.835 51.697l18.671-1.9956V67.925l13.1376.0043h26.6067v-25.748l3.682-.4184-3.682-4.192v-.182"/><path fill="#008AAB" mask="url(#b)" d="M24.926 41.7496l.0028-13.3682H59.836v.2162l-10.4014 2.9862 2.196 2.4323-2.6852.767-.8587-.92-3.3325-1.349-1.605 1.11-1.9696-.663-2.3352 1.909-1.856-.182-1.7616 1.8-1.633-.337-2.4802 2.685.18 1.058"/><path d="M27.3183 20.8993h.888v-2.093h-.888v2.093zm0 4.6814v-2.7473h2.057l1.2447-1.1492v-3.6894l-1.197-1.1258h-4.4945v8.7117h2.3898zm6.8297-1.9342h.8762v-4.852h-.8763v4.852zm-1.1796 1.9342h3.2528l1.195-1.1376v-6.425l-1.195-1.148h-3.2528l-1.1944 1.148v6.426l1.1944 1.138zm6.4798 0h2.6856l.5767-4.6257.5747 4.6257h2.6845l1.145-8.7117h-2.178l-.4513 4.454-.5343-4.454h-2.444l-.599 4.2735-.438-4.2735h-2.18m14.684 8.7117v-2.1764h-2.53v-1.2097h2.342v-2.095h-2.342V18.963H53v-2.094h-4.943v8.7117m8.4867-5.3702h.94v-1.5152h-.94v1.5152zm0 5.3702v-3.5072h.9395v3.5072h2.3766v-3.544l-.9634-.907.9766-.9575v-2.1545l-1.2066-1.1487H54.154v8.7117h2.3897zm-29.2013 23.605v16.331h-2.4137l-.007-16.073m7.0623-.7513v16.8243h-2.413V48.9484m6.2027 16.5684h-1.5603l-.0037-4.1784m-.0002-2.4224l-.007-7.8407v-5.469l1.6794 5.077 1.302.3745m13.366-2.292V58.83l-2.042-2.411-.82-5.1768m7.504-8.2557v22.5302h-2.088l-.326-1.5412v-20.716m7.057-.8028V65.517H57.42V42.7322m13.7145-15.772l-1.9564 8.1424-10.383 1.1513 3.806 4.356-9.821 1.08-.468-.682-4.167-2.148-.008-2.271 6.402-1.916-2.117-2.322" fill="#FFF" mask="url(#b)"/><path fill="#A7A9AC" mask="url(#b)" d="M46.7182 41.3575l1.1503-.758 3.237 1.6693-1.334 4.0845-3.2678-3.58m1.632 5.1717l-2.971 1.5418-3.618-1.1636-3.7616.6882-1.775-3.7812 4.128-.7222-1.827 1.3006.543.9708 2.267-1.3038 4.211-1.6214m-4.063-.8562l-1.506-1.6085.664-5.6533 1.098-.8985.996.336-.919 5.6343-.912.23 1.388 1.8576m-3.805.4376l-1.879-1.2788.262-4.6374.971-.991 1.036.1004-.325 5.0866-.804.1822 1.621 1.425m-4.613.5354l-1.0472-.682-.59-3.7106 1.2794-1.387.864.178.1276 4.214-.845.202 1.146 1.078m9.1754-9.0296l.313-.2166 1.4616.5916-.6275 4.7664-1.3813.3802.29 2.4583-.665.0834-.914-2.0478"/><path fill="#FFF" mask="url(#b)" d="M31.5376 41.3754l-9.2784 2.685 2.0463 2.2242L15.75 48.881l15.0685-1.9272-2.317-2.5088 3.514-.4228"/><path fill="#A7A9AC" mask="url(#b)" d="M49.623 65.5168l-.371-3.9012-3.6284-4.6618-.2714-4.9665-3.6904-1.6835-2.7016.762-2.138 9.338 2.8024 5.113"/><path d="M60.4618 70.591h-.361v-.4662h.3674c.1895 0 .291.0552.291.23 0 .1768-.0993.2363-.2974.2363m.529.618l-.0123-.216c-.0085-.164-.0388-.257-.1816-.304.137-.052.216-.179.216-.351 0-.263-.162-.421-.428-.421-.008 0-.035-.002-.08-.002h-.654v1.515h.25v-.623h.382c.2 0 .231.085.24.243l.008.181c.004.08.008.146.037.2h.282v-.043c-.056-.032-.059-.087-.063-.176m.239.303c-.228.232-.506.347-.834.347-.326 0-.605-.115-.833-.347-.228-.231-.343-.511-.343-.839 0-.325.116-.604.345-.8336.2292-.231.507-.3464.8303-.3464.3254 0 .604.1154.8336.3464.228.23.342.5084.342.8334 0 .328-.114.6085-.342.839m.136-1.8056c-.2664-.265-.5904-.398-.9696-.398-.376 0-.698.134-.964.399-.2663.267-.4012.59-.4012.9664 0 .38.1324.7045.3974.972.266.2678.588.402.9676.402.379 0 .703-.1342.97-.402.267-.269.402-.5925.402-.972 0-.3773-.135-.7-.402-.9662" fill="#000" mask="url(#b)"/></g></g></svg>