<svg width="80" height="80" viewBox="0 0 80 80" xmlns="http://www.w3.org/2000/svg" xmlns:xlink="http://www.w3.org/1999/xlink"><title>SydneySwans</title><defs><path id="a" d="M2.5295.452H0v5.2187h2.5295V.452z"/><path id="c" d="M2.5295.452H0v5.2187h2.5295V.452z"/><path id="e" d="M3.0076 5.6707V.452H.4786v5.2187h2.529z"/><path id="g" d="M3.0076 5.6707V.452H.4786v5.2187h2.529z"/><path id="i" d="M2.7438.452h-2.53v5.2187h2.53V.452z"/><path id="k" d="M2.7438.452h-2.53v5.2187h2.53V.452z"/></defs><g fill="none" fill-rule="evenodd"><path fill="#FFF" d="M17.1232 21.1874L39.962 69.264l22.9635-48.06H45.6788l-5.6486 11.1877-5.744-11.2043"/><path d="M33.9044 21.8123l6.13 11.9573s5.7035-11.2955 6.029-11.9408h15.8702c-.8022 1.6797-20.9145 43.7724-21.9697 45.982-1.051-2.2117-21.055-44.3205-21.852-45.9985h15.792z" fill="#FFF"/><path d="M43.2922 68.864h.245v-.5475h.1922c.1302 0 .221.0144.2727.0443.088.0518.131.1585.131.3187v.1104l.006.044c.001.006.002.011.004.015l.004.014h.229l-.0082-.017c-.006-.012-.0096-.036-.0123-.073-.002-.037-.0032-.071-.0032-.104v-.1017c0-.07-.025-.142-.0755-.2157-.0505-.073-.13-.1186-.239-.1357.086-.014.153-.036.202-.067.09-.059.135-.15.135-.2744 0-.174-.071-.2914-.215-.351-.0803-.033-.2068-.0498-.379-.0498h-.486v1.388zm.6982-.7492c-.0518.0203-.1297.031-.2327.031h-.2205v-.5034h.2087c.135 0 .233.0176.294.0518.062.0347.092.1025.092.2033 0 .1068-.048.1794-.143.2173zm.7077-.8337c-.247-.245-.545-.368-.895-.368-.348 0-.645.124-.891.369-.247.247-.37.545-.37.893 0 .351.122.651.367.897.246.248.544.372.894.372s.649-.124.896-.372.371-.547.371-.897c0-.349-.124-.647-.37-.892zm-.126.123c.212.213.318.469.318.77 0 .303-.105.561-.317.775-.211.214-.468.32-.769.32-.302 0-.559-.106-.77-.32-.21-.214-.315-.472-.315-.775 0-.301.1058-.558.3176-.77.212-.214.4687-.321.768-.321.301 0 .5573.107.7697.321z" fill="#000"/><path d="M34.2864 21.204l5.744 11.187 5.6487-11.187h17.247L49.741 48.741c-.9494-4.9188 1.2176-7.5725 1.2176-7.5725s-3.0183-.4425-5.576 1.9727c-.4643-.8316-2.2897-5.3582-9.4973-6.162 1.559 1.8264 1.8735 4.171 1.7534 5.7958-1.303-1.1758-3.2142-2.0944-4.8458-2.143.828 1.1444.852 4.1888.828 4.1643-1.803-1.7043-4.189-2.1425-4.189-2.1425.255 1.557.703 3.3252.268 4.943-1.415-2.8603-12.576-26.4094-12.576-26.4094l17.163.0166z" fill="#EE1E31"/><path d="M40.0367 55.3265c-2.387 2.6666-3.4613 4.5998-1.9957 5.0374 2.363.707 2.683-8.736 11.7-11.648l-9.779 20.548-3.9044-8.303c.205-1.813 1.9204-3.886 3.6994-5.821 3.0177-3.283 2.636-6.839.4483-8.701-1.986-1.691-6.314-1.082-7.2188 1.351.2023.337.4942-.432.7798-.281.5305.28-.8156 1.133 0 1.56.3298.157.3592.287.624.343 1.186.25 1.133-1.227 2.573-1.269.774-.023 1.7726.448 2.064 1.806.2728 1.269-.224 2.726-2.1087 4.207-.4906.385-1.717.996-2.7776 2.868l-.1564-.406c1.1166-2.4403 5.3235-3.3044 4.684-6.6248-.2428-1.26-1.4218-1.7546-2.2192-1.4247-.9047.374-.7483 1.2792-2.0592 1.092-.8982.838-1.837 1.8856-2.87 2.5896-.1648.0224-.0388-.5284-.0314-.6554.3075-.9885.6154-1.8035.9672-2.777.262.345.1547.9062.11 1.501.2695-.224.722-1.039.6703-1.1887-.5305-.4675-.8935-.5507-.7494-1.03 1.092-3.619 6.361-3.503 7.976-1.8873 2.982 2.983 1.962 6.443-.427 9.1118" fill="#EE1E31"/><path fill="#000" d="M35.343 13.3798v.998h-1.0232v1.048h.8652v.9494h-.8898v1.122h1.0232v.9734H33.238v-5.0908"/><path fill="#000" d="M35.343 13.3798v.998h-1.0232v1.048h.8652v.9494h-.8898v1.122h1.0232v.9734H33.238v-5.0908m-7.6874 4.1886v-3.197c.522-.0124.9447.6148.9447 1.6262 0 1.3055-.6405 1.613-.9447 1.5708m-.95-4.1722l-.077-.0166-.0122 5.0908c1.1646.0102 2.982.3432 3.0076-2.4984.0225-2.4835-1.5617-2.6623-2.9184-2.5758"/><path d="M25.5506 17.5684v-3.197c.522-.0124.9447.6148.9447 1.6262 0 1.3055-.6405 1.613-.9447 1.5708m-.95-4.1722l-.077-.0166-.0122 5.0908c1.1646.0102 2.982.3432 3.0076-2.4984.0225-2.4835-1.5617-2.6623-2.9184-2.5758m-2.7538 1.6248l.603-1.6413h1.0975l-1.172 2.6148-.0247 2.476h-.9986v-2.476l-1.2057-2.6148h1.107" fill="#000"/><path fill="#000" d="M21.8468 15.021l.603-1.6413h1.0975l-1.172 2.6148-.0247 2.476h-.9986v-2.476l-1.2057-2.6148h1.107m9.6233 2.7525v-2.698h1.0573v5.071h-.959l-1.177-2.817v2.817H28.78v-5.071h.9783"/><path fill="#000" d="M30.8766 16.1322v-2.698h1.0573v5.071h-.959l-1.177-2.817v2.817H28.78v-5.071h.9783"/><g transform="translate(16.9 12.867)"><mask id="b" fill="#fff"><use xlink:href="#a"/></mask><path d="M2.234.7C1.959.5388 1.67.4518 1.3483.4518.49.4518-.0004 1.137-.0004 1.935c0 .7382.3833 1.1193.9597 1.5084.2823.2012.579.389.579.7782 0 .3357-.2614.4692-.5833.4692-.295 0-.505-.0668-.7397-.228v.9528c.228.1676.577.255.8582.255.9394 0 1.456-.6777 1.456-1.5766 0-1.3685-1.5227-1.415-1.5227-2.247 0-.3085.1735-.457.482-.457.2754 0 .5438.1085.745.2825V.7z" fill="#000" mask="url(#b)"/></g><g transform="translate(16.9 12.867)"><mask id="d" fill="#fff"><use xlink:href="#c"/></mask><path d="M2.234.7C1.959.5388 1.67.4518 1.3483.4518.49.4518-.0004 1.137-.0004 1.935c0 .7382.3833 1.1193.9597 1.5084.2823.2012.579.389.579.7782 0 .3357-.2614.4692-.5833.4692-.295 0-.505-.0668-.7397-.228v.9528c.228.1676.577.255.8582.255.9394 0 1.456-.6777 1.456-1.5766 0-1.3685-1.5227-1.415-1.5227-2.247 0-.3085.1735-.457.482-.457.2754 0 .5438.1085.745.2825V.7z" fill="#000" mask="url(#d)"/></g><g transform="translate(60.132 12.867)"><mask id="f" fill="#fff"><use xlink:href="#e"/></mask><path d="M2.713.7C2.4374.5388 2.1486.4518 1.8273.4518.968.4518.4787 1.137.4787 1.935c0 .7382.382 1.1193.959 1.5084.2824.2012.5797.389.5797.7782 0 .3357-.262.4692-.584.4692-.295 0-.5053-.0668-.7396-.228v.9528c.228.1676.577.255.8582.255.9394 0 1.456-.6777 1.456-1.5766 0-1.3685-1.5227-1.415-1.5227-2.247 0-.3085.174-.457.4825-.457.275 0 .5433.1085.745.2825V.7z" fill="#000" mask="url(#f)"/></g><g transform="translate(60.132 12.867)"><mask id="h" fill="#fff"><use xlink:href="#g"/></mask><path d="M2.713.7C2.4374.5388 2.1486.4518 1.8273.4518.968.4518.4787 1.137.4787 1.935c0 .7382.382 1.1193.959 1.5084.2824.2012.5797.389.5797.7782 0 .3357-.262.4692-.584.4692-.295 0-.5053-.0668-.7396-.228v.9528c.228.1676.577.255.8582.255.9394 0 1.456-.6777 1.456-1.5766 0-1.3685-1.5227-1.415-1.5227-2.247 0-.3085.174-.457.4825-.457.275 0 .5433.1085.745.2825V.7z" fill="#000" mask="url(#h)"/></g><g transform="translate(42.52 12.867)"><mask id="j" fill="#fff"><use xlink:href="#i"/></mask><path d="M2.448.7C2.1733.5388 1.885.4518 1.5633.4518.7038.4518.214 1.137.214 1.935c0 .7382.383 1.1193.96 1.5084.282.2012.5792.389.5792.7782 0 .3357-.262.4692-.584.4692-.295 0-.5054-.0668-.7397-.228v.9528c.228.1676.5764.255.8583.255.9393 0 1.456-.6777 1.456-1.5766 0-1.3685-1.5233-1.415-1.5233-2.247 0-.3085.174-.457.483-.457.275 0 .5434.1085.7446.2825V.7z" fill="#000" mask="url(#j)"/></g><g transform="translate(42.52 12.867)"><mask id="l" fill="#fff"><use xlink:href="#k"/></mask><path d="M2.448.7C2.1733.5388 1.885.4518 1.5633.4518.7038.4518.214 1.137.214 1.935c0 .7382.383 1.1193.96 1.5084.282.2012.5792.389.5792.7782 0 .3357-.262.4692-.584.4692-.295 0-.5054-.0668-.7397-.228v.9528c.228.1676.5764.255.8583.255.9393 0 1.456-.6777 1.456-1.5766 0-1.3685-1.5233-1.415-1.5233-2.247 0-.3085.174-.457.483-.457.275 0 .5434.1085.7446.2825V.7z" fill="#000" mask="url(#l)"/></g><path d="M53.196 16.8053l.266-1.858.2972 1.858h-.563zm.86-3.371h-1.097l-1.1768 5.071h1.058l.198-.86h.919l.2178.86h1.0856l-1.2047-5.071z" fill="#000"/><path d="M53.196 16.8053l.266-1.858.2972 1.858h-.563zm.86-3.371h-1.097l-1.1768 5.071h1.058l.198-.86h.919l.2178.86h1.0856l-1.2047-5.071zm4.3388 2.698v-2.698h1.0574v5.071h-.958l-1.1775-2.817v2.817h-1.018v-5.071h.9785" fill="#000"/><path fill="#000" d="M58.3948 16.1322v-2.698h1.0574v5.071h-.958l-1.1775-2.817v2.817h-1.018v-5.071h.9785M47.206 13.434l.543 3.233.5428-3.233h.8913l.622 3.233.436-3.233h1.106l-1.058 5.071h-.899l-.622-3.371-.702 3.371h-.918l-.998-5.071"/><path fill="#000" d="M47.206 13.434l.543 3.233.5428-3.233h.8913l.622 3.233.436-3.233h1.106l-1.058 5.071h-.899l-.622-3.371-.702 3.371h-.918l-.998-5.071m-8.265 1.587l.6037-1.6413h1.097l-1.172 2.6148-.0246 2.476h-.998v-2.476l-1.2063-2.6148h1.1074"/><path fill="#000" d="M37.8834 15.021l.6032-1.6413h1.0973l-1.173 2.6148-.025 2.476h-.998v-2.476l-1.207-2.6148h1.108"/></g></svg>